<svg xmlns="http://www.w3.org/2000/svg" viewBox="0 0 64 64">
  <path d="M9 64 Q12 46 25 43 L39 43 Q52 46 55 64 Z" fill="#4a7a94"/>
  <path d="M9 64 Q12 46 25 43 L30 43 Q19 48 16 64 Z" fill="#3f6a82"/>
  <path d="M20 44 L44 47 44 51 20 48 Z" fill="#8fc2d8"/>
  <path d="M26 46 Q28 50 26 54 M32 47 Q34 51 32 55 M38 47 Q40 51 38 55" stroke="#c8e8f4" stroke-width="1.3" fill="none"/>
  <rect x="28" y="34" width="8" height="8" fill="#dfc09a"/>
  <path d="M24 22 Q24 32 32 33.6 Q40 32 40 22 L32 18 Z" fill="#f0d8bd"/>
  <circle cx="28.2" cy="25.5" r="1.4" fill="#3f7a94"/>
  <circle cx="35.8" cy="25.5" r="1.4" fill="#3f7a94"/>
  <path d="M25.6 23.2 L30 22.6 M34 22.6 L38.4 23.2" stroke="#2c2620" stroke-width="1.4" stroke-linecap="round"/>
  <path d="M31.3 25.5 Q30.7 28.6 33 28.6" fill="none" stroke="#d3b28c" stroke-width="1.2"/>
  <path d="M29.6 31 Q32 32 34.4 31" fill="none" stroke="#c79b76" stroke-width="1.2" stroke-linecap="round"/>
  <path d="M22 26 Q20 8 32 6.6 Q44 8 42 26 L39.6 26 Q39.6 20 37 18 L27 18 Q24.4 20 24.4 26 Z" fill="#c9d3de"/>
  <path d="M22 26 Q20 8 32 6.6 L32 18 27 18 Q24.4 20 24.4 26 Z" fill="#b5c2ce"/>
  <path d="M29 7 L32 0 35 7 33.4 10 32 6.6 30.6 10 Z" fill="#e8f4fa"/>
  <path d="M27 18 L37 18 39 23 25 23 Z" fill="#a3b2c0"/>
  <path d="M24.4 22 Q20 24 19 29 Q23 28 25 25 Z M39.6 22 Q44 24 45 29 Q41 28 39 25 Z" fill="#8fc2d8"/>
</svg>
