<svg xmlns="http://www.w3.org/2000/svg" viewBox="0 0 64 64">
  <!-- 墨绿斗篷 -->
  <path d="M9 64 Q13 47 26 44 L38 44 Q51 47 55 64 Z" fill="#4a5a44"/>
  <path d="M9 64 Q13 47 26 44 L31 44 Q20 49 17 64 Z" fill="#3d4c38"/>
  <!-- 白衬衫领 -->
  <path d="M26 44 L32 50 L38 44 L38 47 L32 53 L26 47 Z" fill="#e9e4d6"/>
  <!-- 颈与面部 -->
  <rect x="28" y="36" width="8" height="8" fill="#dcb98e"/>
  <path d="M22 20 Q22 34 32 36 Q42 34 42 20 L32 15 Z" fill="#ecd0ae"/>
  <!-- 大眼睛 -->
  <ellipse cx="27.6" cy="25.5" rx="2.4" ry="2.7" fill="#fff"/>
  <ellipse cx="36.4" cy="25.5" rx="2.4" ry="2.7" fill="#fff"/>
  <circle cx="27.8" cy="25.8" r="1.7" fill="#5b83b8"/>
  <circle cx="36.2" cy="25.8" r="1.7" fill="#5b83b8"/>
  <circle cx="27.8" cy="25.8" r=".8" fill="#26364c"/>
  <circle cx="36.2" cy="25.8" r=".8" fill="#26364c"/>
  <path d="M25 22 L30 21.4 M34 21.4 L39 22" stroke="#6a5236" stroke-width="1.5" stroke-linecap="round"/>
  <path d="M31.2 26 Q30.6 29.6 33.2 29.6" fill="none" stroke="#c9a077" stroke-width="1.3"/>
  <path d="M29 32 Q32 33.6 35 32" fill="none" stroke="#b98a63" stroke-width="1.4" stroke-linecap="round"/>
  <!-- 卷发 -->
  <path d="M21 22 Q20 9 32 8 Q44 9 43 22 Q42 17 39 15 Q40 20 37 17.6 Q37.6 13 34 12.4 Q35 16 32 14.6 Q29 16 30 12.4 Q26.4 13 27 17.6 Q24 20 25 15 Q22 17 21 22 Z" fill="#5b4630"/>
  <circle cx="22.5" cy="20" r="3.2" fill="#5b4630"/>
  <circle cx="41.5" cy="20" r="3.2" fill="#5b4630"/>
  <circle cx="26" cy="12.6" r="3" fill="#6a533a"/>
  <circle cx="32" cy="10.6" r="3.2" fill="#6a533a"/>
  <circle cx="38" cy="12.6" r="3" fill="#6a533a"/>
  <!-- 绿叶胸针 -->
  <path d="M32 52 Q36.6 52 37.8 47.6 Q33 47.6 32 52 Z" fill="#9ec49a"/>
  <path d="M32 52 Q36 51 37.2 48.2" fill="none" stroke="#5f8a5c" stroke-width=".9"/>
</svg>
